# xmcd
#
# Track frame offsets:
#	150
#	15785
#	29830
#	44813
#	56571
#	69900
#	83366
#	95094
#	112051
#	125749
#	141222
#	155330
#	172199
#	185621
#
# Disc length: 2612 seconds
# Revision: 1
# Processed by: cddbd v1.5.2PL0 Copyright (c) Steve Scherf et al.
# Submitted via: dBpowerAMP V12.0
#
DISCID=c50a320e
DTITLE=Glen Campbell - Country: Glen Campbell [live 1991]
DYEAR=2014
DGENRE=Country
TTITLE0=Rhinestone Cowboy [live 1991]
TTITLE1=Galveston [live 1991]
TTITLE2=By the Time I Get to Phoenix [live 1991]
TTITLE3=Try a Little Kindness [live 1991]
TTITLE4=Wichita Lineman [live 1991]
TTITLE5=She's Gone, Gone, Gone [live 1991]
TTITLE6=Walkin' in the Sun [live 1991]
TTITLE7=True Grit [live 1991]
TTITLE8=The Hand That Rocks the Cradle [live 1991]
TTITLE9=I Remember You [live 1991]
TTITLE10=The Highwayman [live 1991]
TTITLE11=Southern Nights [live 1991]
TTITLE12=It's Your Amazing Grace [live 1991]
TTITLE13=Gentle on My Mind [live 1991]
EXTD=
EXTT0=
EXTT1=
EXTT2=
EXTT3=
EXTT4=
EXTT5=
EXTT6=
EXTT7=
EXTT8=
EXTT9=
EXTT10=
EXTT11=
EXTT12=
EXTT13=
PLAYORDER=
